# xmcd
#
# Track frame offsets:
#	150
#	15616
#	30785
#	56559
#	75674
#	93629
#	113081
#	135303
#	157464
#	178321
#	190843
#	207460
#	223964
#	239636
#	258138
#	271224
#	293510
#	309481
#	333056
#	349036
#
# Disc length: 4657 seconds
#
# Revision: 0
# Processed by: cddbd v1.5.2PL0 Copyright (c) Steve Scherf et al.
# Submitted via: audiograbber 1.83.01
#
DISCID=21122f14
DTITLE=Various Artist - Compilation
DYEAR=1900
DGENRE=
TTITLE0=Christina Stürmer - Ich lebe
TTITLE1=Vera Böhnisch - Anders
TTITLE2=E.A.V. - Kann denn Schwachsinn Sünde sein (Maxi Version)
TTITLE3=Hohenlohe - Ich will verletzt werden
TTITLE4=Hohenlohe - Wenn dich die Liebe schützt
TTITLE5=Opus - Faster And Faster
TTITLE6=Opus - Flyin' High (live)
TTITLE7=STS - Großvater (live)
TTITLE8=Waterloo and Robinson - Hollywood
TTITLE9=Waterloo and Robinson - My Little World
TTITLE10=Peter Cornelius - Sanft ist unser Kampf
TTITLE11=Peter Cornelius - Treib mi net zum Wahnsinn, Liebling
TTITLE12=Wolfgang Ambros - Alarm
TTITLE13=Sandra Pires - Here I Am
TTITLE14=Johann K. - Rudi
TTITLE15=Unique II - Break My Strike (Prologation)
TTITLE16=Professor Kaiser - Was i' mit du (Radio Edit)
TTITLE17=Professor Kaiser - Was i' mit du (DJ Andy Garcia VS. Virtua Boy RMX)
TTITLE18=Professor Kaiser - Was i' mit du (Karaoke Edit)
TTITLE19=Professor Kaiser - Was i' mit du
EXTD=
EXTT0=
EXTT1=
EXTT2=
EXTT3=
EXTT4=
EXTT5=
EXTT6=
EXTT7=
EXTT8=
EXTT9=
EXTT10=
EXTT11=
EXTT12=
EXTT13=
EXTT14=
EXTT15=
EXTT16=
EXTT17=
EXTT18=
EXTT19=
PLAYORDER=
